<svg xmlns="http://www.w3.org/2000/svg" xmlns:xlink="http://www.w3.org/1999/xlink" viewBox="0 0 679.43 386.53"><defs><style>.cls-1{mix-blend-mode:lighten;filter:url(#luminosity-invert);}.cls-2{fill:url(#linear-gradient);}.cls-3{mask:url(#mask);}.cls-4{fill:#7f5f8f;}.cls-5{fill:#b9a0c8;}</style><linearGradient id="linear-gradient" x1="339.7" y1="371.28" x2="339.7" y2="-42.31" gradientUnits="userSpaceOnUse"><stop offset="0.09" stop-color="#fff"/><stop offset="0.13" stop-color="#f9f9f9"/><stop offset="0.18" stop-color="#e8e8e8"/><stop offset="0.24" stop-color="#cbcbcb"/><stop offset="0.27" stop-color="#bcbcbc"/><stop offset="0.34" stop-color="#989898"/><stop offset="0.45" stop-color="#6a6a6a"/><stop offset="0.55" stop-color="#444"/><stop offset="0.66" stop-color="#262626"/><stop offset="0.76" stop-color="#111"/><stop offset="0.86" stop-color="#040404"/><stop offset="0.95"/></linearGradient><filter id="luminosity-invert" filterUnits="userSpaceOnUse" color-interpolation-filters="sRGB"><feColorMatrix values="-1 0 0 0 1 0 -1 0 0 1 0 0 -1 0 1 0 0 0 1 0"/></filter><mask id="mask" x="0" y="0" width="679.43" height="386.53" maskUnits="userSpaceOnUse"><g class="cls-1"><rect class="cls-2" width="679.41" height="386.53"/></g></mask></defs><g id="Layer_2" data-name="Layer 2"><g id="Capa_1" data-name="Capa 1"><g class="cls-3"><rect class="cls-4" width="679.41" height="386.53"/><path class="cls-5" d="M19.26,268.23a117.61,117.61,0,0,1,1.58,19.29c0,25.49-8.08,48.34-20.84,63.77v35.24H62a112.8,112.8,0,0,0,5.66-35.72C67.64,309.89,46.83,275.8,19.26,268.23Z"/><path class="cls-5" d="M593.8,177.24a130.89,130.89,0,0,0,85.61-5.13V0H610a163.22,163.22,0,0,1-16.2,177.24Z"/><path class="cls-5" d="M465.7,239.35A163.19,163.19,0,0,0,610,0H321.39A163.21,163.21,0,0,0,465.7,239.35Z"/><path class="cls-5" d="M96.26,64.67A50.93,50.93,0,0,0,145.29,0h-98a50.89,50.89,0,0,0,49,64.67Z"/><path class="cls-5" d="M33,287.52a75.2,75.2,0,0,0-2.51-19.29C25.84,250.63,15,235.16,0,223.74V351.29C20.21,335.86,33,313,33,287.52Z"/><path class="cls-5" d="M569,325.58a133.74,133.74,0,0,0-14.65.82c.1,1.57.16,3.16.16,4.75a73.76,73.76,0,0,1-24.95,55.38H679.43A130.35,130.35,0,0,0,569,325.58Z"/><path class="cls-5" d="M620.68,331.15c0-1.59,0-3.18-.15-4.75A74,74,0,1,0,497.7,386.53h98A73.75,73.75,0,0,0,620.68,331.15Z"/></g></g></g></svg>