<svg xmlns="http://www.w3.org/2000/svg" xmlns:xlink="http://www.w3.org/1999/xlink" viewBox="0 0 683 501.83"><defs><style>.cls-1{mix-blend-mode:lighten;filter:url(#luminosity-invert);}.cls-2{fill:url(#linear-gradient);}.cls-3{mask:url(#mask);}.cls-4{fill:#3a89ab;}.cls-5{fill:#84c4ce;}</style><linearGradient id="linear-gradient" x1="341.5" y1="428.66" x2="341.5" y2="12.88" gradientUnits="userSpaceOnUse"><stop offset="0.09" stop-color="#fff"/><stop offset="0.13" stop-color="#f9f9f9"/><stop offset="0.18" stop-color="#e8e8e8"/><stop offset="0.24" stop-color="#cbcbcb"/><stop offset="0.27" stop-color="#bcbcbc"/><stop offset="0.34" stop-color="#989898"/><stop offset="0.45" stop-color="#6a6a6a"/><stop offset="0.55" stop-color="#444"/><stop offset="0.66" stop-color="#262626"/><stop offset="0.76" stop-color="#111"/><stop offset="0.86" stop-color="#040404"/><stop offset="0.95"/></linearGradient><filter id="luminosity-invert" filterUnits="userSpaceOnUse" color-interpolation-filters="sRGB"><feColorMatrix values="-1 0 0 0 1 0 -1 0 0 1 0 0 -1 0 1 0 0 0 1 0"/></filter><mask id="mask" x="0" y="0" width="683" height="501.83" maskUnits="userSpaceOnUse"><g class="cls-1"><rect class="cls-2" y="55.41" width="683" height="388.58"/></g></mask></defs><g id="Layer_2" data-name="Layer 2"><g id="Capa_1" data-name="Capa 1"><g class="cls-3"><rect class="cls-4" y="55.41" width="683" height="388.58"/><path class="cls-5" d="M471.42,14.61c-1.37,5.7-3.09,7.06-4.72,6.67s-2.55-2.38-1.19-8.08S471.64.62,471.64.62,472.78,8.9,471.42,14.61Z"/><path class="cls-5" d="M675.42,65.42c-1.36,5.71-3.08,7.06-4.71,6.68s-2.56-2.38-1.19-8.09,6.12-12.57,6.12-12.57S676.78,59.72,675.42,65.42Z"/><path class="cls-5" d="M522.92,99.14c-2.24,9.35-5.06,11.58-7.73,10.94s-4.18-3.9-2-13.25,10-20.61,10-20.61S525.15,89.79,522.92,99.14Z"/><path class="cls-5" d="M513.2,176.86c-2.23,9.35-5.05,11.57-7.72,10.94s-4.18-3.9-2-13.25,10-20.61,10-20.61S515.44,167.51,513.2,176.86Z"/><path class="cls-5" d="M614.08,22.92c-2.23,9.35-5.05,11.58-7.72,10.94s-4.18-3.9-2-13.25S614.44,0,614.44,0,616.32,13.57,614.08,22.92Z"/><path class="cls-5" d="M617.88,126.7c-1.36,5.7-3.08,7.06-4.71,6.67s-2.56-2.38-1.19-8.08,6.12-12.58,6.12-12.58S619.24,121,617.88,126.7Z"/><path class="cls-5" d="M387,126.7c-1.36,5.7-3.08,7.06-4.71,6.67s-2.55-2.38-1.19-8.08,6.12-12.58,6.12-12.58S388.34,121,387,126.7Z"/><path class="cls-5" d="M520.73,245.51c-1.36,5.71-3.08,7.07-4.71,6.68s-2.55-2.38-1.19-8.09S521,231.53,521,231.53,522.1,239.81,520.73,245.51Z"/><path class="cls-5" d="M363.81,326.22c-1.36,5.7-3.08,7.06-4.71,6.67s-2.56-2.38-1.19-8.08S364,312.23,364,312.23,365.17,320.51,363.81,326.22Z"/><path class="cls-5" d="M352.6,199.93c-1.36,5.7-3.08,7.06-4.71,6.67s-2.55-2.38-1.19-8.08,6.12-12.58,6.12-12.58S354,194.22,352.6,199.93Z"/><path class="cls-5" d="M576.78,338.92c-1.36,5.71-3.08,7.06-4.71,6.67s-2.56-2.37-1.19-8.08S577,324.93,577,324.93,578.14,333.22,576.78,338.92Z"/><path class="cls-5" d="M513.2,416c-2.23,9.35-5.05,11.58-7.72,10.94s-4.18-3.9-2-13.25,10-20.61,10-20.61S515.44,406.63,513.2,416Z"/><path class="cls-5" d="M428,386.84c-2.23,9.35-5.05,11.57-7.72,10.94s-4.18-3.9-2-13.25,10-20.61,10-20.61S430.25,377.49,428,386.84Z"/><path class="cls-5" d="M638,265c-2.24,9.35-5.06,11.57-7.73,10.93s-4.18-3.9-1.95-13.24,10-20.62,10-20.62S640.23,255.69,638,265Z"/><path class="cls-5" d="M645.53,350.88c-1.36,5.7-3.09,7.06-4.72,6.67s-2.55-2.38-1.18-8.08,6.12-12.58,6.12-12.58S646.89,345.17,645.53,350.88Z"/><path class="cls-5" d="M348.86,434.57c-1.36,5.71-3.08,7.06-4.71,6.67s-2.55-2.37-1.19-8.08,6.12-12.58,6.12-12.58S350.23,428.87,348.86,434.57Z"/><path class="cls-5" d="M425.83,315.76c-1.36,5.7-3.08,7.06-4.71,6.67s-2.55-2.38-1.19-8.08,6.12-12.58,6.12-12.58S427.19,310.05,425.83,315.76Z"/><path class="cls-5" d="M360.07,99.8c-1.36,5.7-3.08,7.06-4.71,6.67s-2.55-2.38-1.19-8.08,6.12-12.58,6.12-12.58S361.44,94.09,360.07,99.8Z"/><path class="cls-5" d="M450.49,495.1c-1.36,5.7-3.08,7.06-4.71,6.67s-2.55-2.38-1.19-8.08,6.12-12.58,6.12-12.58S451.85,489.39,450.49,495.1Z"/><path class="cls-5" d="M345.13,25.07c-1.36,5.7-3.09,7.06-4.72,6.67s-2.55-2.38-1.19-8.08,6.13-12.58,6.13-12.58S346.49,19.36,345.13,25.07Z"/><path class="cls-5" d="M446.76,223.09c-1.37,5.71-3.09,7.07-4.72,6.68s-2.55-2.38-1.19-8.09S447,209.11,447,209.11,448.12,217.39,446.76,223.09Z"/><path class="cls-5" d="M156.07,14.61c-1.36,5.7-3.08,7.06-4.71,6.67s-2.56-2.38-1.19-8.08S156.29.62,156.29.62,157.43,8.9,156.07,14.61Z"/><path class="cls-5" d="M360.07,65.42c-1.36,5.71-3.08,7.06-4.71,6.68s-2.55-2.38-1.19-8.09,6.12-12.57,6.12-12.57S361.44,59.72,360.07,65.42Z"/><path class="cls-5" d="M207.57,99.14c-2.23,9.35-5,11.58-7.72,10.94s-4.18-3.9-1.95-13.25,10-20.61,10-20.61S209.8,89.79,207.57,99.14Z"/><path class="cls-5" d="M197.86,176.86c-2.24,9.35-5.06,11.57-7.73,10.94s-4.18-3.9-1.95-13.25,10-20.61,10-20.61S200.09,167.51,197.86,176.86Z"/><path class="cls-5" d="M298.74,22.92c-2.23,9.35-5.06,11.58-7.73,10.94s-4.18-3.9-1.95-13.25S299.1,0,299.1,0,301,13.57,298.74,22.92Z"/><path class="cls-5" d="M302.53,126.7c-1.36,5.7-3.08,7.06-4.71,6.67s-2.55-2.38-1.19-8.08,6.12-12.58,6.12-12.58S303.9,121,302.53,126.7Z"/><path class="cls-5" d="M71.63,126.7c-1.36,5.7-3.08,7.06-4.71,6.67s-2.56-2.38-1.19-8.08,6.12-12.58,6.12-12.58S73,121,71.63,126.7Z"/><path class="cls-5" d="M205.39,245.51c-1.36,5.71-3.08,7.07-4.71,6.68s-2.56-2.38-1.19-8.09,6.12-12.57,6.12-12.57S206.75,239.81,205.39,245.51Z"/><path class="cls-5" d="M48.46,326.22c-1.36,5.7-3.08,7.06-4.71,6.67s-2.55-2.38-1.19-8.08,6.12-12.58,6.12-12.58S49.83,320.51,48.46,326.22Z"/><path class="cls-5" d="M37.25,199.93c-1.36,5.7-3.08,7.06-4.71,6.67s-2.55-2.38-1.19-8.08,6.12-12.58,6.12-12.58S38.62,194.22,37.25,199.93Z"/><path class="cls-5" d="M261.43,338.92c-1.36,5.71-3.08,7.06-4.71,6.67s-2.55-2.37-1.19-8.08,6.12-12.58,6.12-12.58S262.8,333.22,261.43,338.92Z"/><path class="cls-5" d="M197.86,416c-2.24,9.35-5.06,11.58-7.73,10.94s-4.18-3.9-1.95-13.25,10-20.61,10-20.61S200.09,406.63,197.86,416Z"/><path class="cls-5" d="M112.67,386.84c-2.23,9.35-5,11.57-7.73,10.94s-4.18-3.9-1.94-13.25,10-20.61,10-20.61S114.9,377.49,112.67,386.84Z"/><path class="cls-5" d="M322.65,265c-2.23,9.35-5,11.57-7.72,10.93s-4.19-3.9-1.95-13.24,10-20.62,10-20.62S324.88,255.69,322.65,265Z"/><path class="cls-5" d="M330.18,350.88c-1.36,5.7-3.08,7.06-4.71,6.67s-2.55-2.38-1.19-8.08,6.12-12.58,6.12-12.58S331.54,345.17,330.18,350.88Z"/><path class="cls-5" d="M33.52,434.57c-1.36,5.71-3.09,7.06-4.72,6.67s-2.55-2.37-1.18-8.08,6.12-12.58,6.12-12.58S34.88,428.87,33.52,434.57Z"/><path class="cls-5" d="M110.49,315.76c-1.37,5.7-3.09,7.06-4.72,6.67s-2.55-2.38-1.19-8.08,6.13-12.58,6.13-12.58S111.85,310.05,110.49,315.76Z"/><path class="cls-5" d="M44.73,99.8c-1.37,5.7-3.09,7.06-4.72,6.67s-2.55-2.38-1.19-8.08S45,85.81,45,85.81,46.09,94.09,44.73,99.8Z"/><path class="cls-5" d="M135.15,495.1c-1.37,5.7-3.09,7.06-4.72,6.67s-2.55-2.38-1.19-8.08,6.13-12.58,6.13-12.58S136.51,489.39,135.15,495.1Z"/><path class="cls-5" d="M29.78,25.07c-1.36,5.7-3.08,7.06-4.71,6.67s-2.55-2.38-1.19-8.08S30,11.08,30,11.08,31.14,19.36,29.78,25.07Z"/><text/></g></g></g></svg>