<svg xmlns="http://www.w3.org/2000/svg" xmlns:xlink="http://www.w3.org/1999/xlink" viewBox="0 0 680.66 420.76"><defs><style>.cls-1{mix-blend-mode:lighten;filter:url(#luminosity-invert);}.cls-2{fill:url(#linear-gradient);}.cls-3{mask:url(#mask);}.cls-4{fill:#e26a61;}.cls-5{fill:none;stroke:#f0915b;stroke-miterlimit:10;stroke-width:9px;}</style><linearGradient id="linear-gradient" x1="340.33" y1="386.12" x2="340.33" y2="-28.23" gradientUnits="userSpaceOnUse"><stop offset="0.09" stop-color="#fff"/><stop offset="0.13" stop-color="#f9f9f9"/><stop offset="0.18" stop-color="#e8e8e8"/><stop offset="0.24" stop-color="#cbcbcb"/><stop offset="0.27" stop-color="#bcbcbc"/><stop offset="0.34" stop-color="#989898"/><stop offset="0.45" stop-color="#6a6a6a"/><stop offset="0.55" stop-color="#444"/><stop offset="0.66" stop-color="#262626"/><stop offset="0.76" stop-color="#111"/><stop offset="0.86" stop-color="#040404"/><stop offset="0.95"/></linearGradient><filter id="luminosity-invert" filterUnits="userSpaceOnUse" color-interpolation-filters="sRGB"><feColorMatrix values="-1 0 0 0 1 0 -1 0 0 1 0 0 -1 0 1 0 0 0 1 0"/></filter><mask id="mask" x="0" y="0" width="680.66" height="420.76" maskUnits="userSpaceOnUse"><g class="cls-1"><rect class="cls-2" y="14.15" width="680.66" height="387.25"/></g></mask></defs><g id="Layer_2" data-name="Layer 2"><g id="Capa_1" data-name="Capa 1"><g class="cls-3"><rect class="cls-4" y="14.15" width="680.66" height="387.25"/><path class="cls-5" d="M42.65,0c0,29.57-22,29.57-22,59.14s22,29.57,22,59.14-22,29.57-22,59.14,22,29.57,22,59.14-22,29.57-22,59.14,22,29.58,22,59.15-22,29.57-22,59.14"/><path class="cls-5" d="M79.14.4c0,29.57-22,29.57-22,59.14s22,29.57,22,59.14-22,29.57-22,59.14,22,29.57,22,59.14-22,29.57-22,59.14,22,29.57,22,59.15-22,29.57-22,59.14"/><path class="cls-5" d="M115.63.8c0,29.57-22,29.57-22,59.14s22,29.57,22,59.14-22,29.57-22,59.14,22,29.57,22,59.14-22,29.57-22,59.14,22,29.57,22,59.14-22,29.58-22,59.15"/><path class="cls-5" d="M152.12,1.19c0,29.57-22,29.57-22,59.15s22,29.57,22,59.14-22,29.56-22,59.13,22,29.57,22,59.14-22,29.58-22,59.15,22,29.57,22,59.14-22,29.58-22,59.15"/><path class="cls-5" d="M188.61,1.59c0,29.57-22,29.57-22,59.14s22,29.57,22,59.14-22,29.57-22,59.14,22,29.57,22,59.14-22,29.57-22,59.15,22,29.57,22,59.14-22,29.57-22,59.15"/><path class="cls-5" d="M225.1,2c0,29.57-22,29.57-22,59.14s22,29.57,22,59.14-22,29.57-22,59.14,22,29.57,22,59.14-22,29.57-22,59.14,22,29.58,22,59.15-22,29.57-22,59.14"/><path class="cls-5" d="M261.59,2.39c0,29.57-22,29.57-22,59.14s22,29.57,22,59.14-22,29.57-22,59.14,22,29.57,22,59.14-22,29.57-22,59.14,22,29.57,22,59.15-22,29.57-22,59.14"/><path class="cls-5" d="M298.09,2.79c0,29.57-22,29.57-22,59.14s22,29.57,22,59.14-22,29.57-22,59.14,22,29.57,22,59.14-22,29.57-22,59.14,22,29.57,22,59.14-22,29.58-22,59.15"/><path class="cls-5" d="M334.58,3.18c0,29.58-22,29.58-22,59.15s22,29.57,22,59.14-22,29.56-22,59.13,22,29.57,22,59.14-22,29.58-22,59.15,22,29.57,22,59.14-22,29.58-22,59.15"/><path class="cls-5" d="M371.07,3.58c0,29.57-22,29.57-22,59.14s22,29.57,22,59.14-22,29.57-22,59.14,22,29.57,22,59.14-22,29.57-22,59.15,22,29.57,22,59.14-22,29.57-22,59.15"/><path class="cls-5" d="M407.56,4c0,29.57-22,29.57-22,59.14s22,29.57,22,59.14-22,29.57-22,59.14,22,29.57,22,59.14-22,29.57-22,59.14,22,29.58,22,59.15-22,29.57-22,59.14"/><path class="cls-5" d="M444.05,4.38c0,29.57-22,29.57-22,59.14s22,29.57,22,59.14-22,29.57-22,59.14,22,29.57,22,59.14-22,29.57-22,59.14,22,29.57,22,59.15-22,29.57-22,59.14"/><path class="cls-5" d="M480.54,4.78c0,29.57-22,29.57-22,59.14s22,29.57,22,59.14-22,29.57-22,59.14,22,29.57,22,59.14-22,29.57-22,59.14,22,29.57,22,59.15-22,29.57-22,59.14"/><path class="cls-5" d="M517,5.17c0,29.58-22,29.58-22,59.15s22,29.57,22,59.14S495,153,495,182.59s22,29.57,22,59.15-22,29.57-22,59.14,22,29.57,22,59.14-22,29.58-22,59.15"/><path class="cls-5" d="M553.52,5.57c0,29.57-22,29.57-22,59.14s22,29.57,22,59.14-22,29.57-22,59.14,22,29.57,22,59.14-22,29.57-22,59.15,22,29.57,22,59.14-22,29.57-22,59.15"/><path class="cls-5" d="M590,6c0,29.57-22,29.57-22,59.14s22,29.57,22,59.14-22,29.57-22,59.14,22,29.57,22,59.14-22,29.57-22,59.14,22,29.58,22,59.15S568,390.39,568,420"/><path class="cls-5" d="M626.5,6.37c0,29.57-22,29.57-22,59.14s22,29.57,22,59.14-22,29.57-22,59.14,22,29.57,22,59.14-22,29.57-22,59.14,22,29.57,22,59.15-22,29.57-22,59.14"/><path class="cls-5" d="M663,6.77c0,29.57-22,29.57-22,59.14s22,29.57,22,59.14-22,29.57-22,59.14,22,29.57,22,59.14-22,29.57-22,59.14,22,29.57,22,59.15-22,29.57-22,59.14"/></g></g></g></svg>