<svg xmlns="http://www.w3.org/2000/svg" xmlns:xlink="http://www.w3.org/1999/xlink" viewBox="0 0 681 387.44"><defs><style>.cls-1{mix-blend-mode:lighten;filter:url(#luminosity-invert);}.cls-2{fill:url(#linear-gradient);}.cls-3{mask:url(#mask);}.cls-4{fill:#60c66e;}.cls-5{fill:#9bdc68;}</style><linearGradient id="linear-gradient" x1="340.5" y1="372.15" x2="340.5" y2="-42.4" gradientUnits="userSpaceOnUse"><stop offset="0.09" stop-color="#fff"/><stop offset="0.13" stop-color="#f9f9f9"/><stop offset="0.18" stop-color="#e8e8e8"/><stop offset="0.24" stop-color="#cbcbcb"/><stop offset="0.27" stop-color="#bcbcbc"/><stop offset="0.34" stop-color="#989898"/><stop offset="0.45" stop-color="#6a6a6a"/><stop offset="0.55" stop-color="#444"/><stop offset="0.66" stop-color="#262626"/><stop offset="0.76" stop-color="#111"/><stop offset="0.86" stop-color="#040404"/><stop offset="0.95"/></linearGradient><filter id="luminosity-invert" filterUnits="userSpaceOnUse" color-interpolation-filters="sRGB"><feColorMatrix values="-1 0 0 0 1 0 -1 0 0 1 0 0 -1 0 1 0 0 0 1 0"/></filter><mask id="mask" x="0" y="0" width="681" height="387.44" maskUnits="userSpaceOnUse"><g class="cls-1"><rect class="cls-2" width="681" height="387.44"/></g></mask></defs><g id="Layer_2" data-name="Layer 2"><g id="Capa_1" data-name="Capa 1"><g class="cls-3"><rect class="cls-4" width="681" height="387.44"/><path class="cls-5" d="M200.25,154.63s14.88-7.09,31.21-4.24S259.38,165,259.38,165s-14.89,7.09-31.21,4.24S200.25,154.63,200.25,154.63Z"/><path class="cls-5" d="M178.94,272.61s10.3-12.87,26.23-17.43,31.48.93,31.48.93S226.36,269,210.42,273.54,178.94,272.61,178.94,272.61Z"/><path class="cls-5" d="M58.12,108.83s15.5-5.61,31.47-1.19S116,124.87,116,124.87s-15.5,5.61-31.48,1.18S58.12,108.83,58.12,108.83Z"/><path class="cls-5" d="M67.35,55.43s15.5-5.61,31.47-1.18,26.37,17.22,26.37,17.22-15.5,5.61-31.48,1.18S67.35,55.43,67.35,55.43Z"/><path class="cls-5" d="M320.35,86.14s15.56,5.44,25.15,19,9.58,30,9.58,30-15.56-5.43-25.15-18.94S320.35,86.14,320.35,86.14Z"/><path class="cls-5" d="M301.87,3.48s15.5-5.61,31.47-1.18,26.37,17.22,26.37,17.22-15.5,5.61-31.47,1.18S301.87,3.48,301.87,3.48Z"/><path class="cls-5" d="M549,58.86s-.73-16.46,8.26-30.39,24.31-20,24.31-20,.73,16.47-8.26,30.39S549,58.86,549,58.86Z"/><path class="cls-5" d="M529.58,271.85s10.3-12.88,26.24-17.43,31.48.93,31.48.93-10.3,12.87-26.24,17.43S529.58,271.85,529.58,271.85Z"/><path class="cls-5" d="M86.57,151.88s15.56,5.43,25.16,19,9.58,30,9.58,30-15.57-5.43-25.16-19S86.57,151.88,86.57,151.88Z"/><path class="cls-5" d="M408.76,108.83s15.5-5.61,31.47-1.19,26.37,17.23,26.37,17.23-15.5,5.61-31.47,1.18S408.76,108.83,408.76,108.83Z"/><path class="cls-5" d="M116.46,35.45s8.78-14,24.11-20.26S172,12.58,172,12.58s-8.78,14-24.1,20.26S116.46,35.45,116.46,35.45Z"/><path class="cls-5" d="M667.6,151.77s-11.19,12.1-27.42,15.5-31.33-3.19-31.33-3.19S620,152,636.27,148.58,667.6,151.77,667.6,151.77Z"/><path class="cls-5" d="M418,55.43s15.5-5.61,31.47-1.18,26.37,17.22,26.37,17.22-15.5,5.61-31.47,1.18S418,55.43,418,55.43Z"/><path class="cls-5" d="M436.41,152S452,157.47,461.57,171s9.58,30,9.58,30-15.56-5.44-25.16-19S436.41,152,436.41,152Z"/><path class="cls-5" d="M199.92,57.34s-.73-16.47,8.26-30.39,24.31-20,24.31-20,.73,16.47-8.27,30.39S199.92,57.34,199.92,57.34Z"/></g></g></g></svg>